<?xml version="1.0" encoding="iso-8859-1"?>
<!-- Generator: Adobe Illustrator 19.1.0, SVG Export Plug-In . SVG Version: 6.00 Build 0)  -->
<svg version="1.1" id="Capa_1" xmlns="http://www.w3.org/2000/svg" xmlns:xlink="http://www.w3.org/1999/xlink" x="0px" y="0px"
	 viewBox="0 0 63.48 63.48" style="enable-background:new 0 0 63.48 63.48;" xml:space="preserve">
<g>
	<g id="group-67svg">
		<path id="path-1_114_" style="fill:#8B71B5;" d="M59.49,63.48l-24.5-16.841L10.49,63.48V7.691C10.49,5.366,12.496,3,14.822,3h40
			c2.325,0,4.668,2.366,4.668,4.691V63.48z"/>
		<path id="path-2_114_" d="M53.99,62.98c-0.303,0-0.605-0.091-0.861-0.272L29.99,46.471L6.851,62.708
			c-0.457,0.322-1.055,0.363-1.553,0.103C4.801,62.553,4.49,62.04,4.49,61.48V5.691C4.49,2.446,6.782,0,9.822,0h40
			c3.125,0,5.668,2.553,5.668,5.691V61.48c0,0.56-0.312,1.073-0.808,1.331C54.465,62.925,54.226,62.98,53.99,62.98z M29.99,43.139
			c0.302,0,0.603,0.09,0.861,0.272L52.49,58.596V5.691C52.49,4.183,51.318,3,49.822,3h-40C8.211,3,7.49,4.351,7.49,5.691v52.905
			l21.639-15.185C29.386,43.229,29.688,43.139,29.99,43.139z"/>
		<path id="path-3_113_" d="M51.49,12h-46c-0.828,0-1.5-0.672-1.5-1.5S4.662,9,5.49,9h46c0.828,0,1.5,0.672,1.5,1.5
			S52.318,12,51.49,12z"/>
		<path id="path-4_111_" d="M29.463,40.698c-0.456,0-0.887-0.207-1.171-0.563L20.357,30.2c-0.517-0.647-0.411-1.592,0.235-2.108
			c0.648-0.517,1.592-0.409,2.109,0.235l6.762,8.468l6.763-8.468c0.517-0.645,1.459-0.753,2.109-0.235
			c0.646,0.516,0.753,1.461,0.235,2.108l-7.935,9.935C30.351,40.491,29.92,40.698,29.463,40.698z"/>
		<path id="path-5_99_" d="M28.99,39.5c-0.828,0-1.5-0.672-1.5-1.5V17c0-0.828,0.672-1.5,1.5-1.5s1.5,0.672,1.5,1.5v21
			C30.49,38.828,29.818,39.5,28.99,39.5z"/>
	</g>
</g>
<g>
</g>
<g>
</g>
<g>
</g>
<g>
</g>
<g>
</g>
<g>
</g>
<g>
</g>
<g>
</g>
<g>
</g>
<g>
</g>
<g>
</g>
<g>
</g>
<g>
</g>
<g>
</g>
<g>
</g>
</svg>
