<svg id="dog-baby" xmlns="http://www.w3.org/2000/svg" viewBox="0 0 64 64"><defs><style>.cls-1,.cls-3,.cls-5{fill:#ffe082;}.cls-2{fill:#006064;}.cls-3{stroke:#eaca81;}.cls-3,.cls-5{stroke-linecap:round;stroke-linejoin:round;stroke-width:2px;}.cls-4{fill:#ff4931;}.cls-5{stroke:#006064;}.cls-6{fill:#cead5b;}</style></defs><title>dog-baby</title><path class="cls-1" d="M10,11H55a0,0,0,0,1,0,0V36.5A22.5,22.5,0,0,1,32.5,59h0A22.5,22.5,0,0,1,10,36.5V11a0,0,0,0,1,0,0Z"/><path class="cls-2" d="M33,45l5.49-6.26A1,1,0,0,0,37.71,37H28.29a1,1,0,0,0-.78,1.72Z"/><path class="cls-3" d="M45,16V13.64A5.64,5.64,0,0,1,50.64,8H61V24l-8-8"/><path class="cls-3" d="M19,16V13.64A5.64,5.64,0,0,0,13.36,8H3V24l8-8"/><path class="cls-4" d="M29,47h8a0,0,0,0,1,0,0v3a4,4,0,0,1-4,4h0a4,4,0,0,1-4-4V47A0,0,0,0,1,29,47Z"/><path class="cls-5" d="M21,44a6,6,0,0,0,12,0"/><path class="cls-5" d="M33,44a6,6,0,0,0,12,0"/><circle class="cls-6" cx="24" cy="29" r="6"/><circle class="cls-2" cx="24" cy="29" r="2" transform="translate(-13.46 32.67) rotate(-55.98)"/><circle class="cls-2" cx="42" cy="29" r="2" transform="translate(-5.53 47.59) rotate(-55.98)"/></svg>