<?xml version="1.0" encoding="iso-8859-1"?>
<!-- Generator: Adobe Illustrator 16.0.0, SVG Export Plug-In . SVG Version: 6.00 Build 0)  -->
<!DOCTYPE svg PUBLIC "-//W3C//DTD SVG 1.1//EN" "http://www.w3.org/Graphics/SVG/1.1/DTD/svg11.dtd">
<svg version="1.1" id="Capa_1" xmlns="http://www.w3.org/2000/svg" xmlns:xlink="http://www.w3.org/1999/xlink" x="0px" y="0px"
	 width="79.536px" height="79.536px" viewBox="0 0 79.536 79.536" style="enable-background:new 0 0 79.536 79.536;"
	 xml:space="preserve">
<g>
	<path style="fill:#010002;" d="M6.017,48.468h21.937l-4.73,30.375H10.377L6.017,48.468z M59.072,36.586
		c4.184-0.01,7.975-1.691,10.714-4.432c2.76-2.758,4.453-6.527,4.442-10.717c0-4.188-1.693-7.974-4.442-10.716
		c-2.75-2.757-6.52-4.443-10.714-4.443c-4.184,0-7.964,1.675-10.719,4.443c-2.744,2.742-4.442,6.517-4.442,10.716
		c0,4.189,1.688,7.975,4.442,10.717C51.098,34.896,54.878,36.586,59.072,36.586z M24.216,25.132H3.749
		C1.67,25.132,0,23.468,0,21.396c0-2.079,1.67-3.754,3.749-3.754h20.467c1.103,0,2.079,0.497,2.763,1.25h10.934
		c1.245-10.372,9.98-18.447,20.679-18.437c11.573-0.01,20.94,9.37,20.945,20.94c0,11.562-9.372,20.927-20.945,20.927
		c-10.698,0-19.438-8.065-20.679-18.442H26.979C26.295,24.646,25.318,25.132,24.216,25.132z M42.031,21.428
		c0,4.707,1.91,8.971,4.991,12.052c3.071,3.076,7.332,4.994,12.05,4.994c4.702-0.01,8.963-1.918,12.039-4.989
		c3.092-3.091,4.986-7.35,4.986-12.041c0-4.705-1.905-8.956-4.986-12.042C68.03,6.32,63.764,4.412,59.072,4.412
		c-4.702,0-8.953,1.908-12.044,4.989C43.947,12.482,42.031,16.733,42.031,21.428z M37.733,77.766
		c0.896,0.875,2.004,1.314,3.319,1.314H74.41c1.32,0,2.423-0.439,3.324-1.314c0.891-0.865,1.336-1.952,1.336-3.268H36.379
		C36.379,75.813,36.83,76.9,37.733,77.766z M75.477,53.972c0.725,0.71,1.284,1.549,1.709,2.522c0.425,0.994,0.626,2.024,0.626,3.133
		c0,1.107-0.201,2.139-0.626,3.096c-0.425,0.942-0.989,1.766-1.709,2.476c-0.704,0.714-1.554,1.284-2.521,1.703
		c-0.984,0.425-2.02,0.632-3.128,0.632h-0.782v1.74c0,1.16-0.383,2.107-1.159,2.848c-0.762,0.735-1.688,1.108-2.797,1.108H47.204
		c-1.108,0-2.04-0.373-2.796-1.108c-0.767-0.74-1.145-1.688-1.145-2.848V51.637h26.568c1.108,0,2.144,0.207,3.128,0.632
		C73.923,52.693,74.782,53.263,75.477,53.972z M74.653,59.621c0-1.356-0.456-2.517-1.372-3.443
		c-0.942-0.922-2.087-1.383-3.449-1.383h-0.787v9.58h0.787c1.367,0,2.517-0.467,3.449-1.398
		C74.197,62.055,74.653,60.937,74.653,59.621z"/>
</g>
<g>
</g>
<g>
</g>
<g>
</g>
<g>
</g>
<g>
</g>
<g>
</g>
<g>
</g>
<g>
</g>
<g>
</g>
<g>
</g>
<g>
</g>
<g>
</g>
<g>
</g>
<g>
</g>
<g>
</g>
</svg>
