<?xml version="1.0" ?><!DOCTYPE svg  PUBLIC '-//W3C//DTD SVG 1.1//EN'  'http://www.w3.org/Graphics/SVG/1.1/DTD/svg11.dtd'><svg enable-background="new 0 0 128 128" id="Слой_1" version="1.1" viewBox="0 0 128 128" xml:space="preserve" xmlns="http://www.w3.org/2000/svg" xmlns:xlink="http://www.w3.org/1999/xlink"><g><path d="M100.6,50.9h-4c0,17.9-14.6,32.5-32.5,32.5S31.7,68.8,31.7,50.9h-4C27.7,71,44,87.3,64.1,87.3   S100.6,71,100.6,50.9z" fill="#3EBBC4"/><path d="M61.7,123.6c0.8,0.6,1.6,1,2.5,1c0,0,0.1,0,0.1,0c0.2,0,0.4,0,0.6-0.1c0.4-0.1,0.7-0.2,0.9-0.4   c0,0,0,0,0.1,0c5.2-3.2,44.5-45.1,45.8-70.8l0-2.4c0-26.2-21.3-47.5-47.5-47.5S16.6,24.7,16.6,50.9c0,0.8,0,1.7,0.1,2.6   c0.7,13.2,11.2,30.1,19.9,42C46,108.3,57.1,120.3,61.7,123.6z M20.7,52.9c-0.1-0.5-0.1-1.3-0.1-2c0-24,19.5-43.5,43.5-43.5   s43.5,19.5,43.5,43.5v2.3c-1.2,22.8-37.2,62.7-43.4,67.2c0,0-0.1,0-0.1,0c-6.3-4.1-42.1-44-43.3-67.3L20.7,52.9z" fill="#3EBBC4"/><path d="M45.1,47.2v25.3h37.8V47.2l2.2,2.2l2.8-2.8l-5-5V27.3h-9.6v4.7L64,22.7L40.1,46.6l2.8,2.8L45.1,47.2z    M77.2,41.6V31.3h1.6v11.6v0.3v25.3H49.1V43.2L64,28.3L77.2,41.6z" fill="#3EBBC4"/></g></svg>