<?xml version="1.0" ?><!DOCTYPE svg  PUBLIC '-//W3C//DTD SVG 1.1//EN'  'http://www.w3.org/Graphics/SVG/1.1/DTD/svg11.dtd'><svg enable-background="new 0 0 128 128" id="Слой_1" version="1.1" viewBox="0 0 128 128" xml:space="preserve" xmlns="http://www.w3.org/2000/svg" xmlns:xlink="http://www.w3.org/1999/xlink"><g><g><g><path d="M115,69.4l-49.8,50.1c-5.8,5.9-15.4,5.9-21.2,0.1L16.2,92c-5.9-5.8-5.9-15.4-0.1-21.2l49.8-50.1     c5.8-5.9,15.4-5.9,21.2-0.1L115,48.2C120.9,54,120.9,63.5,115,69.4z" fill="#65C5B4"/></g><path d="M115.2,48.4L86.9,20.3c-5.7-5.7-15-5.7-20.7,0.1L15.8,71c-3.9,4-5.1,9.6-3.6,14.6l3.3,5.7    c0.1,0.1,0.3,0.3,0.4,0.4L41,116.7c0.7,0.1,1.4,0.1,2.1,0.1c3.9,0,7.7-1,11.1-3l39.5-22.9l21.6-21.7C121,63.4,121,54.1,115.2,48.4    z" fill="#593055" opacity="0.2"/><g><path d="M54.6,125.2c-4.3,0-8.4-1.7-11.5-4.7L15.3,92.9c-3.1-3.1-4.8-7.1-4.8-11.5c0-4.3,1.7-8.4,4.7-11.5     L65,19.7c3.1-3.1,7.2-4.8,11.5-4.8c4.3,0,8.4,1.7,11.5,4.7l27.8,27.6c6.4,6.3,6.4,16.6,0.1,23l-49.8,50.1     C63,123.5,58.9,125.2,54.6,125.2z M76.6,17.4c-3.7,0-7.2,1.4-9.8,4.1L17,71.6c-2.6,2.6-4,6.1-4,9.7c0,3.7,1.5,7.1,4.1,9.7     l27.8,27.6c2.6,2.6,6,4,9.7,4c3.7,0,7.2-1.4,9.8-4.1l49.8-50.1c5.4-5.4,5.3-14.1-0.1-19.5L86.3,21.4     C83.7,18.9,80.2,17.4,76.6,17.4z" fill="#62355C"/></g><g opacity="0.3"><path d="M77,55.1c9.9,7.6,9.9,22.3,0.1,30c-6.7,5.2-16.3,5.3-23,0.1c-9.9-7.6-9.9-22.3-0.1-30     C60.7,49.9,70.3,49.9,77,55.1z" fill="#F6F7F6"/></g><g><path d="M48.9,115.9c-0.3,0-0.6-0.1-0.9-0.4L20.2,87.9c-0.5-0.5-0.5-1.3,0-1.8c2.4-2.4,2.4-6.2,0-8.6     c-0.2-0.2-0.4-0.6-0.4-0.9s0.1-0.6,0.4-0.9L71,24.7c0.5-0.5,1.3-0.5,1.8,0c1.1,1.1,2.7,1.8,4.3,1.8c1.6,0,3.2-0.6,4.3-1.8     c0.5-0.5,1.3-0.5,1.8,0l27.8,27.6c0.5,0.5,0.5,1.3,0,1.8c-2.4,2.4-2.4,6.2,0,8.6c0.5,0.5,0.5,1.3,0,1.8l-50.8,51.1     c-0.5,0.5-1.3,0.5-1.8,0c-1.1-1.1-2.7-1.8-4.3-1.8c-1.6,0-3.2,0.6-4.3,1.8C49.5,115.8,49.2,115.9,48.9,115.9     C48.9,115.9,48.9,115.9,48.9,115.9z M22.8,87L49,113c1.5-1.1,3.3-1.7,5.1-1.7c1.9,0,3.6,0.6,5.1,1.7l49.2-49.5     c-2.3-3-2.3-7.2,0-10.2l-26.2-26c-1.5,1.1-3.3,1.7-5.1,1.7c-1.9,0-3.6-0.6-5.1-1.7L22.8,76.7C25,79.8,25,83.9,22.8,87z" fill="#62355C"/></g><g><path d="M65.6,90.2c-4.4,0-8.8-1.5-12.2-4.1c-5-3.9-7.9-9.7-7.9-15.9s2.8-12.1,7.8-16c3.5-2.7,7.8-4.2,12.3-4.2     c4.4,0,8.8,1.5,12.2,4.1c5,3.9,7.9,9.7,7.9,15.9c0,6.3-2.8,12.1-7.8,16C74.4,88.7,70.1,90.2,65.6,90.2z M65.6,52.5     c-3.9,0-7.8,1.3-10.8,3.7c-4.4,3.4-6.9,8.5-6.9,14c0,5.5,2.5,10.6,6.9,14c3,2.3,6.8,3.6,10.7,3.6c3.9,0,7.8-1.3,10.8-3.7     c4.4-3.4,6.9-8.5,6.9-14c0-5.5-2.5-10.6-6.9-14C73.3,53.7,69.5,52.5,65.6,52.5z" fill="#62355C"/></g><g><path d="     M72.9,77.5" fill="none" stroke="#404243" stroke-linecap="round" stroke-linejoin="round" stroke-miterlimit="10" stroke-width="2.5"/></g><g><path d="M71.1,67.3c-0.9-0.2-1.8-0.2-2.6,0c-0.8,0.2-1.5,0.5-2.3,0.9c-0.6,0.3-1.2,0.7-1.9,1     c-0.6,0.3-1.1,0.6-1.7,0.9c-0.4,0.2-0.9,0.3-1.3,0.3c-0.4,0-0.8,0-1.2-0.2c-0.3-0.1-0.7-0.4-1.4-1c-0.3-0.3-0.6-0.7-0.8-1.1     c-0.2-0.4-0.3-0.8-0.3-1.3c0-0.5,0.1-0.9,0.3-1.4c0.4-1.1,1.6-2.3,2.7-2.7c0.5-0.2,1-0.3,1.4-0.2c0.5,0,1,0.2,1.4,0.4     c0.6,0.3,1.4,0.1,1.7-0.5c0.3-0.6,0.1-1.4-0.5-1.7c-0.8-0.4-1.6-0.6-2.4-0.7c-0.8-0.1-1.7,0.1-2.5,0.4c-0.5,0.2-1,0.5-1.5,0.8     l-0.5-0.5c-0.5-0.5-1.3-0.5-1.8,0s-0.5,1.3,0,1.8l0.5,0.5c-0.3,0.5-0.6,1-0.8,1.5c-0.3,0.8-0.5,1.7-0.5,2.5     c0,0.8,0.2,1.6,0.5,2.3c0.3,0.7,0.8,1.3,1.3,1.9c0.8,0.8,1.5,1.3,2.3,1.6c0.8,0.3,1.5,0.4,2.2,0.3c0.7-0.1,1.5-0.2,2.2-0.5     c0.7-0.3,1.3-0.6,1.9-1c0.6-0.3,1.2-0.7,1.8-1c0.5-0.3,1.1-0.5,1.6-0.6c0.5-0.1,1-0.1,1.5,0c0.5,0.1,1.1,0.5,1.6,1     c0.4,0.4,0.7,0.8,1,1.3c0.2,0.5,0.4,0.9,0.4,1.4c0,0.5-0.1,0.9-0.3,1.4c-0.4,0.9-1.4,2-2.4,2.5c-0.5,0.2-1,0.4-1.5,0.4     c-0.5,0-1.1-0.1-1.7-0.3c-0.6-0.3-1.4,0.1-1.6,0.7c-0.3,0.6,0.1,1.4,0.7,1.6c0.9,0.4,1.9,0.5,2.8,0.5c0.9,0,1.8-0.3,2.5-0.7     c0.3-0.1,0.5-0.3,0.8-0.5l0.5,0.5c0.5,0.5,1.3,0.5,1.8,0s0.5-1.3,0-1.8l-0.5-0.5c0.4-0.5,0.7-1,1-1.6c0.3-0.8,0.5-1.7,0.5-2.5     c0-0.8-0.3-1.6-0.7-2.4c-0.4-0.7-0.8-1.4-1.4-1.9C73,68.1,72.1,67.5,71.1,67.3z" fill="#62355C"/></g></g><g><g><path d="M111.9,71.6l-61.2,35.4c-7.2,4.2-16.4,1.7-20.5-5.5L10.5,67.6C6.4,60.5,8.8,51.3,16,47.1l61.2-35.4     c7.2-4.2,16.4-1.7,20.5,5.5l19.7,33.9C121.5,58.3,119.1,67.5,111.9,71.6z" fill="#65C5B4"/></g><path d="M97.5,16.9c-4.1-7-13-9.4-20-5.3L15.7,47.3c-4.9,2.9-7.6,8.1-7.3,13.5l1.6,5.8    c0.1,0.2,0.2,0.5,0.4,0.7l17.8,30.8c2.4,0.9,5,1.4,7.7,1.4c2,0,3.9-0.3,5.8-0.8l43.9-11.8l26.7-15.5c7-4.1,9.4-13,5.3-20    L97.5,16.9z" fill="#593055" opacity="0.2"/><g><path d="M43.2,110.3c-5.8,0-11.2-3.1-14.1-8.1L9.5,68.3C5,60.5,7.6,50.5,15.4,46l61.2-35.4     c2.5-1.4,5.3-2.2,8.1-2.2c5.8,0,11.2,3.1,14.1,8.1l19.7,33.9c2.2,3.8,2.8,8.1,1.6,12.3s-3.8,7.7-7.6,9.9l-61.2,35.4     C48.9,109.6,46,110.3,43.2,110.3z M84.7,10.9c-2.4,0-4.8,0.6-6.9,1.9L16.6,48.2c-6.6,3.8-8.8,12.2-5,18.8L31.3,101     c2.5,4.2,7,6.9,11.9,6.9c2.4,0,4.8-0.6,6.9-1.9l61.2-35.4c3.2-1.8,5.5-4.8,6.4-8.4s0.5-7.3-1.4-10.4L96.6,17.8     C94.2,13.6,89.6,10.9,84.7,10.9z" fill="#62355C"/></g><g opacity="0.3"><path d="M78.9,47.9c7.5,9.9,3.8,24.1-7.7,29c-7.8,3.3-17.1,0.8-22.2-5.9c-7.5-9.9-3.8-24.1,7.7-29     C64.5,38.6,73.8,41.1,78.9,47.9z" fill="#F6F7F6"/></g><g><path d="M46.2,102c-0.4,0-0.9-0.2-1.1-0.6c-1.1-1.9-3.1-3-5.3-3c-1.1,0-2.1,0.3-3,0.8c-0.3,0.2-0.6,0.2-0.9,0.1     c-0.3-0.1-0.6-0.3-0.8-0.6L15.5,64.8c-0.3-0.6-0.1-1.4,0.5-1.7c2.9-1.7,3.9-5.4,2.2-8.3C18,54.5,18,54.1,18,53.8s0.3-0.6,0.6-0.8     L81,16.9c0.6-0.3,1.4-0.1,1.7,0.5c1.1,1.9,3.1,3,5.3,3c1.1,0,2.1-0.3,3-0.8c0.6-0.3,1.4-0.1,1.7,0.5L112.4,54     c0.3,0.6,0.1,1.4-0.5,1.7c-1.4,0.8-2.4,2.1-2.8,3.7c-0.4,1.6-0.2,3.2,0.6,4.6c0.2,0.3,0.2,0.6,0.1,0.9s-0.3,0.6-0.6,0.8     l-62.4,36.1C46.7,101.9,46.5,102,46.2,102z M39.9,95.8c2.6,0,5.1,1.2,6.7,3.2l60.4-35c-0.7-1.7-0.8-3.6-0.3-5.4     c0.5-1.8,1.5-3.4,3-4.5L91.2,22.3c-1,0.4-2.1,0.6-3.2,0.6c-2.6,0-5.1-1.2-6.7-3.2l-60.4,35c1.4,3.5,0.3,7.5-2.6,9.9l18.5,31.9     C37.7,96.1,38.8,95.8,39.9,95.8z" fill="#62355C"/></g><g><path d="M64,79.5c-6.3,0-12.3-2.9-16-7.9c-3.8-5-5.1-11.4-3.5-17.5c1.6-6.1,5.9-10.9,11.7-13.4     c2.4-1,5-1.5,7.7-1.5c6.3,0,12.3,2.9,16,7.9c3.8,5,5.1,11.4,3.5,17.5c-1.6,6.1-5.9,10.9-11.7,13.4C69.3,79,66.7,79.5,64,79.5z      M63.9,41.7c-2.3,0-4.6,0.5-6.7,1.4c-5.1,2.2-8.9,6.4-10.3,11.7c-1.4,5.3-0.3,10.9,3.1,15.3c3.3,4.3,8.5,6.9,14,6.9     c2.3,0,4.6-0.5,6.7-1.4c5.1-2.2,8.9-6.4,10.3-11.7c1.4-5.3,0.3-10.9-3.1-15.3C74.7,44.3,69.4,41.7,63.9,41.7z" fill="#62355C"/></g><g><path d="     M69.1,68.4" fill="none" stroke="#404243" stroke-linecap="round" stroke-linejoin="round" stroke-miterlimit="10" stroke-width="2.5"/></g><g><path d="M70,58.1c-0.8-0.4-1.7-0.7-2.5-0.7c-0.8,0-1.6,0-2.4,0.2c-0.7,0.2-1.4,0.3-2.1,0.5     c-0.6,0.2-1.3,0.3-1.9,0.4c-0.5,0.1-0.9,0.1-1.4,0c-0.4-0.1-0.7-0.2-1.1-0.5c-0.2-0.2-0.6-0.5-1.1-1.3c-0.2-0.4-0.4-0.8-0.5-1.3     c-0.1-0.4-0.1-0.9,0-1.3c0.1-0.4,0.3-0.9,0.7-1.3c0.7-0.9,2.2-1.8,3.3-1.9c0.5-0.1,1,0,1.5,0.2c0.5,0.2,0.9,0.4,1.3,0.8     c0.5,0.5,1.3,0.4,1.8-0.1c0.5-0.5,0.4-1.3-0.1-1.8c-0.6-0.6-1.3-1-2.1-1.3c-0.8-0.3-1.7-0.4-2.6-0.3c-0.5,0.1-1.1,0.2-1.7,0.4     l-0.3-0.6c-0.3-0.6-1.1-0.8-1.7-0.5s-0.8,1.1-0.5,1.7L57,50c-0.5,0.4-0.9,0.8-1.2,1.2c-0.5,0.7-0.9,1.5-1.1,2.3     c-0.2,0.8-0.2,1.6-0.1,2.3c0.1,0.8,0.4,1.5,0.8,2.1c0.5,0.9,1.1,1.6,1.8,2.1c0.7,0.5,1.4,0.8,2.1,0.9c0.7,0.1,1.5,0.1,2.2,0     c0.7-0.1,1.4-0.3,2.1-0.4c0.7-0.2,1.3-0.3,2-0.5c0.6-0.1,1.2-0.2,1.7-0.2c0.5,0,1,0.2,1.5,0.4c0.5,0.3,0.9,0.7,1.3,1.4     c0.3,0.5,0.5,1,0.6,1.5c0.1,0.5,0.1,1,0,1.5c-0.1,0.4-0.3,0.9-0.6,1.3c-0.6,0.8-1.8,1.5-3,1.8c-0.5,0.1-1,0.1-1.6,0     c-0.5-0.1-1.1-0.4-1.6-0.8c-0.6-0.4-1.3-0.3-1.8,0.3c-0.4,0.6-0.3,1.3,0.3,1.8c0.8,0.6,1.7,1,2.6,1.2c0.9,0.2,1.8,0.2,2.6,0     c0.3-0.1,0.6-0.2,0.9-0.3l0.4,0.7c0.3,0.6,1.1,0.8,1.7,0.5c0.6-0.3,0.8-1.1,0.5-1.7l-0.3-0.6c0.5-0.4,1-0.8,1.3-1.3     c0.6-0.7,0.9-1.5,1.1-2.3c0.2-0.8,0.2-1.6,0-2.5c-0.2-0.8-0.5-1.5-0.9-2.2C71.7,59.4,70.9,58.6,70,58.1z" fill="#62355C"/></g></g><g><g><path d="M108.3,72.9L40,91.3c-8,2.2-16.3-2.6-18.4-10.6L11.4,42.9C9.3,34.9,14,26.6,22,24.5L90.3,6.1     c8-2.2,16.3,2.6,18.4,10.6l10.2,37.9C121,62.5,116.3,70.8,108.3,72.9z" fill="#65C5B4"/></g><path d="M108.6,16.3C106.5,8.5,98.4,3.9,90.6,6L21.7,24.6c-5.4,1.5-9.3,5.8-10.5,10.8V42    c0,0.2,0.1,0.4,0.1,0.6l9.2,34.1c3.6,2.6,8.1,4.1,12.9,4.1h45.7l29.5-8c7.8-2.1,12.4-10.2,10.3-18L108.6,16.3z" fill="#593055" opacity="0.2"/><g><path d="M36.1,93.1c-7.3,0-13.8-4.9-15.7-12L10.2,43.2C7.9,34.6,13,25.6,21.7,23.3L89.9,4.9     c1.4-0.4,2.8-0.6,4.2-0.6c7.3,0,13.8,4.9,15.7,12l10.2,37.9c1.1,4.2,0.6,8.6-1.6,12.3c-2.2,3.8-5.7,6.5-9.9,7.6L40.4,92.6     C39,92.9,37.6,93.1,36.1,93.1z M94.2,6.8c-1.2,0-2.4,0.2-3.6,0.5L22.3,25.7c-7.3,2-11.7,9.6-9.7,16.9l10.2,37.9     c1.6,6,7.1,10.2,13.3,10.2c1.2,0,2.4-0.2,3.6-0.5L108,71.7c3.6-1,6.5-3.2,8.3-6.4c1.8-3.2,2.3-6.9,1.4-10.5L107.5,17     C105.8,11,100.4,6.8,94.2,6.8z" fill="#62355C"/></g><g opacity="0.3"><path d="M82.6,41.5c4.7,11.5-2.6,24.3-14.9,26c-8.4,1.2-16.7-3.6-20-11.5C43,44.4,50.3,31.7,62.6,30     C71,28.8,79.4,33.6,82.6,41.5z" fill="#F6F7F6"/></g><g><path d="M37.4,85.4c-0.6,0-1.1-0.4-1.2-0.9c-0.7-2.6-3.1-4.5-5.9-4.5c-0.5,0-1.1,0.1-1.6,0.2     c-0.3,0.1-0.7,0-0.9-0.1c-0.3-0.2-0.5-0.4-0.6-0.8L17,41.4c-0.2-0.7,0.2-1.4,0.9-1.5c3.2-0.9,5.2-4.2,4.3-7.5     c-0.2-0.7,0.2-1.4,0.9-1.5l69.6-18.8c0.7-0.2,1.4,0.2,1.5,0.9c0.7,2.6,3.1,4.5,5.9,4.5c0.5,0,1.1-0.1,1.6-0.2     c0.7-0.2,1.4,0.2,1.5,0.9L113.4,56c0.1,0.3,0,0.7-0.1,0.9c-0.2,0.3-0.4,0.5-0.8,0.6c-1.6,0.4-2.9,1.4-3.7,2.8s-1,3-0.6,4.6     c0.1,0.3,0,0.7-0.1,0.9c-0.2,0.3-0.4,0.5-0.8,0.6L37.7,85.3C37.6,85.3,37.5,85.4,37.4,85.4z M30.3,77.4c3.4,0,6.5,2.1,7.9,5.2     l67.4-18.2c-0.2-1.8,0.2-3.7,1.1-5.3s2.3-2.9,4-3.6L101,19.9c-0.3,0-0.7,0.1-1,0.1c-3.4,0-6.5-2.1-7.9-5.2L24.8,33     c0.4,3.7-1.6,7.4-5.1,8.9l9.6,35.6C29.6,77.5,30,77.4,30.3,77.4z" fill="#62355C"/></g><g><path d="M65.1,68.9c-8.1,0-15.5-5-18.6-12.4c-2.4-5.9-2-12.3,1.1-17.8s8.5-9.1,14.8-9.9c0.9-0.1,1.8-0.2,2.7-0.2     c8.1,0,15.5,5,18.6,12.4c2.4,5.9,2,12.3-1.1,17.8c-3.1,5.4-8.5,9.1-14.8,9.9C66.9,68.8,66,68.9,65.1,68.9z M65.2,31.1     c-0.8,0-1.6,0.1-2.4,0.2c-5.5,0.8-10.2,3.9-13,8.7s-3.1,10.4-1,15.6c2.7,6.5,9.2,10.9,16.3,10.9c0.8,0,1.6-0.1,2.4-0.2     c5.5-0.8,10.2-3.9,13-8.7c2.7-4.8,3.1-10.4,1-15.6C78.8,35.4,72.2,31.1,65.2,31.1z" fill="#62355C"/></g><g><path d="     M67.8,58.8" fill="none" stroke="#404243" stroke-linecap="round" stroke-linejoin="round" stroke-miterlimit="10" stroke-width="2.5"/></g><g><path d="M71.4,49.1c-0.7-0.6-1.4-1.1-2.3-1.4c-0.7-0.2-1.5-0.4-2.4-0.4c-0.7,0-1.4,0-2.1,0c-0.6,0-1.3,0-1.9-0.1     c-0.5-0.1-0.9-0.2-1.3-0.4c-0.3-0.2-0.6-0.4-0.9-0.8c-0.2-0.2-0.5-0.7-0.7-1.5c-0.1-0.4-0.2-0.9-0.1-1.4c0-0.4,0.2-0.9,0.4-1.3     c0.2-0.4,0.5-0.8,1-1.1c0.9-0.7,2.6-1.2,3.7-1c0.5,0.1,1,0.3,1.4,0.5c0.4,0.3,0.7,0.6,1,1.1c0.4,0.6,1.2,0.8,1.7,0.4     c0.6-0.4,0.8-1.2,0.4-1.7c-0.5-0.7-1-1.3-1.7-1.8c-0.7-0.5-1.5-0.8-2.4-0.9c-0.5-0.1-1.1-0.1-1.7,0l-0.2-0.6     c-0.2-0.7-0.9-1.1-1.5-0.9s-1.1,0.9-0.9,1.5l0.2,0.6c-0.5,0.2-1,0.5-1.5,0.8c-0.7,0.6-1.3,1.2-1.7,1.9c-0.4,0.7-0.6,1.5-0.7,2.2     c-0.1,0.8,0,1.5,0.2,2.3c0.3,1,0.7,1.9,1.2,2.5c0.5,0.6,1.1,1.1,1.8,1.4c0.7,0.3,1.4,0.5,2.1,0.6c0.7,0.1,1.4,0.1,2.2,0.1     c0.7,0,1.4,0,2.1,0c0.6,0,1.2,0.1,1.7,0.3c0.5,0.2,0.9,0.4,1.3,0.8c0.4,0.4,0.7,0.9,0.9,1.7c0.1,0.5,0.2,1.1,0.2,1.6     c0,0.5-0.1,1-0.4,1.4c-0.2,0.4-0.5,0.8-0.9,1.1c-0.8,0.6-2.2,1-3.4,1c-0.5,0-1-0.2-1.5-0.4c-0.5-0.3-0.9-0.6-1.3-1.2     c-0.4-0.5-1.2-0.6-1.8-0.2c-0.5,0.4-0.6,1.2-0.2,1.8c0.6,0.8,1.4,1.4,2.2,1.8c0.8,0.4,1.7,0.6,2.5,0.7c0.3,0,0.6,0,0.9,0l0.2,0.7     c0.2,0.7,0.9,1.1,1.5,0.9c0.7-0.2,1.1-0.9,0.9-1.5l-0.2-0.7c0.6-0.2,1.2-0.5,1.6-0.9c0.7-0.6,1.3-1.2,1.7-2     c0.4-0.7,0.6-1.6,0.6-2.4c0-0.8,0-1.6-0.3-2.4C72.6,50.7,72.1,49.7,71.4,49.1z" fill="#62355C"/></g></g><g><g><path d="M104.8,73.3H33.4c-8.1,0-14.7-6.6-14.7-14.7V18.7C18.7,10.6,25.3,4,33.4,4h71.4c8.1,0,14.7,6.6,14.7,14.7     v39.9C119.5,66.7,112.9,73.3,104.8,73.3z" fill="#65C5B4"/></g><g><path d="M104.8,74.5H33.4c-8.8,0-15.9-7.1-15.9-15.9V18.7c0-8.8,7.1-15.9,15.9-15.9h71.4     c8.8,0,15.9,7.1,15.9,15.9v39.9C120.7,67.4,113.6,74.5,104.8,74.5z M33.4,5.2C26,5.2,20,11.3,20,18.7v39.9C20,66,26,72,33.4,72     h71.4c7.4,0,13.4-6,13.4-13.4V18.7c0-7.4-6-13.4-13.4-13.4H33.4z" fill="#62355C"/></g><g opacity="0.3"><path d="M87.8,36.2c1.6,12.4-8.8,22.7-21.2,21.2c-8.4-1.1-15.2-7.9-16.3-16.3c-1.6-12.4,8.8-22.7,21.2-21.2     C80,21,86.8,27.8,87.8,36.2z" fill="#F6F7F6"/></g><g><path d="M105.2,66.8H33.1c-0.7,0-1.2-0.6-1.2-1.2c0-3.4-2.7-6.1-6.1-6.1c-0.7,0-1.2-0.6-1.2-1.2V19     c0-0.7,0.6-1.2,1.2-1.2c3.4,0,6.1-2.7,6.1-6.1c0-0.7,0.6-1.2,1.2-1.2h72.1c0.7,0,1.2,0.6,1.2,1.2c0,3.4,2.7,6.1,6.1,6.1     c0.7,0,1.2,0.6,1.2,1.2v39.2c0,0.7-0.6,1.2-1.2,1.2c-3.4,0-6.1,2.7-6.1,6.1C106.4,66.2,105.9,66.8,105.2,66.8z M34.2,64.3H104     c0.5-3.7,3.5-6.7,7.2-7.2V20.2c-3.7-0.5-6.7-3.5-7.2-7.2H34.2c-0.5,3.7-3.5,6.7-7.2,7.2v36.9C30.7,57.6,33.7,60.6,34.2,64.3z" fill="#62355C"/></g><g><path d="M69.1,58.8c-0.9,0-1.7-0.1-2.6-0.2c-8.9-1.1-16.2-8.4-17.4-17.4c-0.7-5.8,1-11.6,4.9-15.9     c4.4-5,11.1-7.5,17.7-6.7C80.7,19.8,88,27.1,89.1,36c0.7,5.8-1,11.6-4.9,15.9C80.4,56.3,74.9,58.8,69.1,58.8z M69.1,21     c-5.1,0-9.9,2.2-13.2,6c-3.4,3.9-4.9,8.8-4.3,14c1,7.8,7.4,14.2,15.2,15.2c5.9,0.7,11.7-1.5,15.5-5.8c3.4-3.9,4.9-8.8,4.3-14     c-1-7.8-7.4-14.2-15.2-15.2C70.6,21,69.9,21,69.1,21z" fill="#62355C"/></g><g><path d="     M69,49.1" fill="none" stroke="#404243" stroke-linecap="round" stroke-linejoin="round" stroke-miterlimit="10" stroke-width="2.5"/></g><g><path d="M75,40.6c-0.5-0.8-1.1-1.4-1.8-1.9c-0.6-0.4-1.4-0.8-2.2-1c-0.7-0.2-1.4-0.4-2.1-0.6     c-0.6-0.2-1.2-0.4-1.8-0.6c-0.4-0.2-0.8-0.4-1.2-0.7c-0.3-0.2-0.5-0.6-0.7-1c-0.1-0.3-0.3-0.8-0.3-1.7c0-0.5,0.1-0.9,0.2-1.4     c0.2-0.4,0.4-0.8,0.7-1.1c0.3-0.3,0.7-0.6,1.2-0.8c1.1-0.4,2.8-0.4,3.8,0c0.5,0.2,0.9,0.5,1.2,0.9c0.3,0.4,0.6,0.8,0.7,1.3     c0.2,0.7,0.9,1,1.6,0.8c0.7-0.2,1-0.9,0.8-1.6c-0.3-0.8-0.7-1.5-1.2-2.2c-0.5-0.6-1.2-1.2-2.1-1.5c-0.5-0.2-1.1-0.4-1.7-0.5v-0.7     c0-0.7-0.6-1.3-1.3-1.3c-0.7,0-1.3,0.6-1.3,1.3v0.6c-0.6,0.1-1.1,0.2-1.6,0.4c-0.8,0.3-1.5,0.8-2.1,1.4c-0.5,0.6-1,1.2-1.2,2     c-0.3,0.7-0.4,1.5-0.4,2.2c0,1.1,0.2,2,0.5,2.7c0.3,0.7,0.8,1.4,1.3,1.8c0.6,0.5,1.2,0.9,1.9,1.1c0.7,0.3,1.4,0.5,2.1,0.7     c0.7,0.2,1.3,0.4,2,0.6c0.6,0.2,1.1,0.4,1.6,0.7c0.4,0.3,0.8,0.6,1.1,1.1c0.3,0.5,0.4,1.1,0.4,1.9c0,0.6-0.1,1.1-0.2,1.6     c-0.2,0.5-0.4,0.9-0.7,1.3c-0.3,0.3-0.7,0.6-1.2,0.8c-0.9,0.4-2.4,0.4-3.5,0.1c-0.5-0.2-1-0.4-1.3-0.8c-0.4-0.4-0.7-0.9-1-1.5     c-0.3-0.6-1-0.9-1.7-0.7c-0.6,0.3-0.9,1-0.7,1.7c0.4,0.9,0.9,1.7,1.6,2.3c0.7,0.6,1.4,1,2.3,1.3c0.3,0.1,0.6,0.2,0.9,0.2v0.8     c0,0.7,0.6,1.3,1.3,1.3c0.7,0,1.3-0.6,1.3-1.3v-0.7c0.6-0.1,1.3-0.2,1.8-0.4c0.8-0.3,1.6-0.8,2.1-1.5c0.6-0.6,1-1.3,1.2-2.2     c0.2-0.8,0.4-1.6,0.4-2.4C75.8,42.5,75.5,41.4,75,40.6z" fill="#62355C"/></g></g></g></svg>