<svg id="shit-hot" xmlns="http://www.w3.org/2000/svg" viewBox="0 0 64 64"><defs><style>.cls-1{fill:#ee7432;}.cls-1,.cls-3{stroke:#ee7432;}.cls-1,.cls-3,.cls-4,.cls-6{stroke-linecap:round;stroke-linejoin:round;}.cls-1,.cls-4,.cls-6{stroke-width:2px;}.cls-2{fill:#faf500;}.cls-3,.cls-4{fill:none;}.cls-3{stroke-width:1.99px;}.cls-4{stroke:#faf500;}.cls-5{opacity:0.1;}.cls-6{fill:#5b3b63;stroke:#5b3b63;}</style></defs><title>shit-hot</title><path className="cls-1" d="M50.5,39h-.71A29.82,29.82,0,0,0,50,35.5,5.5,5.5,0,0,0,44.5,30H42a4.27,4.27,0,0,0,.74-2.39,4.46,4.46,0,0,0-4.53-4.39H34.93a10.4,10.4,0,0,1-8.46-8.78,12.29,12.29,0,0,0-7.08,8.78l-.17,3.09A5.56,5.56,0,0,0,20.62,30H17.5A5.5,5.5,0,0,0,12,35.5a29.82,29.82,0,0,0,.21,3.5H11.5C7.36,39,4,43.36,4,47.5S7.36,56,11.5,56H14v2.5a2.5,2.5,0,0,0,5,0V56H50.5c4.14,0,7.5-4.36,7.5-8.5S54.64,39,50.5,39Z"/><path className="cls-2" d="M20,36a4,4,0,0,0,8,0Z"/><path className="cls-2" d="M34,36a4,4,0,0,0,8,0Z"/><circle className="cls-2" cx="55.5" cy="32.5" r="1.5"/><circle className="cls-2" cx="10.5" cy="27.5" r="1.5"/><circle className="cls-2" cx="39.5" cy="9.5" r="1.5"/><path className="cls-3" d="M35.56,6s-5.31,3.82-2.28,6.88c1.52,1.53,4.55,2.29,1.52,6.12"/><path className="cls-3" d="M47.46,13s-5.31,3.82-2.28,6.88c1.52,1.53,4.55,2.29,1.52,6.12"/><line className="cls-4" x1="21" y1="45" x2="41" y2="45"/><g className="cls-5"><path className="cls-6" d="M50.5,39h-.71A29.82,29.82,0,0,0,50,35.5,5.5,5.5,0,0,0,44.5,30H42a4.27,4.27,0,0,0,.74-2.39,4.46,4.46,0,0,0-4.53-4.39H34.93a10.4,10.4,0,0,1-8.46-8.78,13.35,13.35,0,0,0-4.73,3.71,10.51,10.51,0,0,0,7.19,5.07h3.32a4.46,4.46,0,0,1,4.53,4.39A4.27,4.27,0,0,1,36,30H38.5A5.5,5.5,0,0,1,44,35.5a29.82,29.82,0,0,1-.21,3.5h.71c4.14,0,7.5,4.36,7.5,8.5S48.64,56,44.5,56h6c4.14,0,7.5-4.36,7.5-8.5S54.64,39,50.5,39Z"/><path className="cls-6" d="M14,58.5a2.5,2.5,0,0,0,5,0V56H14Z"/></g></svg>
