<svg viewBox="0 0 48 48" xmlns="http://www.w3.org/2000/svg" xmlns:xlink="http://www.w3.org/1999/xlink" width="48" height="48">
<defs>



 <path fill="#29d9c2" id="i-454" d="M24,0.75L0,18.561V47h48V18.561L24,0.75z M13.29,33.09c-1.28,3.451-1.979,5.65-0.44,7.291l-1.459,1.369 c-2.471-2.629-1.261-5.9,0.02-9.35c1.51-4.07,3.061-8.27-0.11-12.759l1.64-1.15C16.71,23.84,14.811,28.971,13.29,33.09z M24.35,33.09c-1.279,3.451-1.99,5.65-0.439,7.291l-1.46,1.369c-2.47-2.629-1.261-5.9,0.021-9.35c1.5-4.07,3.06-8.27-0.111-12.759 L24,18.491C27.77,23.84,25.87,28.971,24.35,33.09z M35.35,33.09c-1.279,3.451-1.989,5.65-0.439,7.291l-1.46,1.369 c-2.47-2.629-1.26-5.9,0.02-9.35c1.5-4.07,3.061-8.27-0.109-12.759l1.64-1.15C38.77,23.84,36.87,28.971,35.35,33.09z"/> 
</defs>

<use x="0" y="0" xlink:href="#i-454"/>

</svg>